<svg xmlns="http://www.w3.org/2000/svg" width="16" height="16" enable-background="new 0 0 56.693 56.693" viewBox="0 0 56.693 56.693"><style>path { fill: #dfdfdf; }</style><path d="M52.22 25.85h-7.5v-7.5c0-.58-.48-1.05-1.05-1.05h-2.14c-.58 0-1.04.47-1.04 1.04v7.5h-7.53c-.57 0-1.04.48-1.04 1.05V29c0 .58.47 1.04 1.04 1.04h7.5v7.5c0 .6.47 1.05 1.05 1.05h2.14c.57 0 1.04-.45 1.04-1.02v-7.53h7.52c.57 0 1.04-.47 1.04-1.04v-2.1c0-.58-.47-1.05-1.04-1.05zm-25.25 6.6c-1.58-1.13-3-2.77-3.04-3.28 0-.9.1-1.35 2.14-2.96 2.67-2.06 4.13-4.8 4.13-7.7 0-2.62-.8-4.95-2.17-6.6h1.06c.2 0 .42-.06.6-.2l2.95-2.13c.36-.26.52-.73.38-1.16-.14-.42-.54-.7-1-.7h-13.2c-1.45 0-2.92.25-4.36.74-4.82 1.66-8.2 5.77-8.2 9.98 0 5.98 4.64 10.5 10.82 10.65-.13.47-.2.93-.2 1.4 0 .9.24 1.78.7 2.62-.04 0-.1 0-.15 0-5.9 0-11.2 2.9-13.23 7.2-.52 1.1-.8 2.24-.8 3.35 0 1.1.3 2.13.83 3.12 1.27 2.27 4 4.03 7.68 4.96 1.9.5 3.94.73 6.07.73 1.9 0 3.73-.24 5.4-.73 5.25-1.52 8.63-5.38 8.63-9.83 0-4.27-1.37-6.82-5.06-9.43zm-16.7 9.77c0-3.1 3.96-5.84 8.46-5.84h.12c.98.02 1.93.16 2.83.44.3.2.6.4.9.6 2.08 1.43 3.46 2.36 3.84 3.87.1.36.14.74.14 1.1 0 3.87-2.9 5.83-8.58 5.83-4.32 0-7.7-2.64-7.7-6.02zm4.1-29.36c.7-.8 1.63-1.23 2.67-1.23h.1c2.93.1 5.73 3.34 6.24 7.26.3 2.17-.2 4.23-1.3 5.5-.7.8-1.6 1.22-2.7 1.22h-.04c-2.86-.1-5.7-3.47-6.22-7.38-.3-2.2.17-4.15 1.26-5.4z"/></svg>