<svg xmlns="http://www.w3.org/2000/svg" width="16" height="16" enable-background="new 0 0 56.693 56.693" viewBox="0 0 56.693 56.693"><style>path { fill: #dfdfdf }</style><path d="M52.84 15.06c-1.8.8-3.76 1.35-5.8 1.6 2.08-1.25 3.68-3.23 4.44-5.6-1.96 1.16-4.12 2-6.42 2.46-1.84-1.97-4.47-3.2-7.38-3.2-5.58 0-10.1 4.53-10.1 10.1 0 .8.08 1.57.26 2.32C19.44 22.3 12 18.3 7 12.18c-.87 1.5-1.36 3.22-1.36 5.08 0 3.5 1.78 6.6 4.5 8.4-1.66-.04-3.22-.5-4.6-1.25 0 .05 0 .1 0 .13 0 4.9 3.5 8.98 8.12 9.9-.85.24-1.74.37-2.66.37-.65 0-1.3-.07-1.9-.2 1.28 4.03 5.02 6.95 9.44 7.03-3.46 2.7-7.82 4.33-12.55 4.33-.83 0-1.63-.05-2.43-.14 4.48 2.87 9.8 4.54 15.5 4.54 18.6 0 28.75-15.4 28.75-28.76 0-.43 0-.87-.02-1.3 1.97-1.43 3.68-3.2 5.04-5.24z"/></svg>