<svg xmlns="http://www.w3.org/2000/svg" viewBox="0 0 1058 512" width="1058" height="512"><defs><radialGradient id="bgw" cx="0.3" cy="0.22" r="1.05"><stop offset="0" stop-color="#1f233f"/><stop offset="0.45" stop-color="#0d1020"/><stop offset="1" stop-color="#050608"/></radialGradient></defs><rect width="1058" height="512" fill="url(#bgw)"/><svg x="273" y="0" width="512" height="512" viewBox="0 0 512 512"><defs>
    <radialGradient id="bg" cx="0.3" cy="0.22" r="1.05">
      <stop offset="0" stop-color="#1f233f"/>
      <stop offset="0.45" stop-color="#0d1020"/>
      <stop offset="1" stop-color="#050608"/>
    </radialGradient>
    <radialGradient id="core" cx="0.5" cy="0.5" r="0.5">
      <stop offset="0" stop-color="#7ed6ff" stop-opacity="0.22"/>
      <stop offset="0.55" stop-color="#4b79dc" stop-opacity="0.07"/>
      <stop offset="1" stop-color="#000" stop-opacity="0"/>
    </radialGradient>
    <linearGradient id="blue" x1="256" y1="86" x2="256" y2="426" gradientUnits="userSpaceOnUse">
      <stop offset="0" stop-color="#9de5ff"/>
      <stop offset="0.45" stop-color="#64c7ff"/>
      <stop offset="1" stop-color="#3aa4ff"/>
    </linearGradient>
    <linearGradient id="gold" x1="256" y1="86" x2="256" y2="426" gradientUnits="userSpaceOnUse">
      <stop offset="0" stop-color="#fff1c4"/>
      <stop offset="0.5" stop-color="#f4cf68"/>
      <stop offset="1" stop-color="#e0a432"/>
    </linearGradient>
    <filter id="soft" x="-100%" y="-100%" width="300%" height="300%"><feGaussianBlur stdDeviation="9"/></filter>
    <filter id="glow" x="-30%" y="-30%" width="160%" height="160%">
      <feGaussianBlur stdDeviation="10" result="b"/>
      <feMerge><feMergeNode in="b"/><feMergeNode in="SourceGraphic"/></feMerge>
    </filter>
  </defs>
  
  <circle cx="256" cy="256" r="150" fill="url(#core)"/>
  <!-- track -->
  <circle cx="256" cy="256" r="170" fill="none" stroke="#7892c5" stroke-opacity="0.26" stroke-width="44"/>
  <!-- seconds ticks on the track (fade out at tiny sizes) -->
  <circle cx="256" cy="256" r="170" fill="none" stroke="#a7cbff" stroke-opacity="0.30" stroke-width="5" stroke-linecap="round" stroke-dasharray="0.1 17.8024" transform="rotate(-90 256 256)"/>
  <circle cx="256" cy="256" r="170" fill="none" stroke="#c7e2ff" stroke-opacity="0.42" stroke-width="6" stroke-linecap="round" stroke-dasharray="12 77.0118" stroke-dashoffset="6" transform="rotate(-90 256 256)"/>
  <!-- gold scoring arc -->
  <path d="M256.0 86.0 A170 170 0 1 1 116.74 353.51" fill="none" stroke="url(#gold)" stroke-width="44" stroke-linecap="round" filter="url(#glow)"/>
  <circle cx="116.74" cy="353.51" r="42" fill="#eec04d" fill-opacity="0.7" filter="url(#soft)"/>
  <circle cx="116.74" cy="353.51" r="30" fill="#fff1c4"/>
  <!-- sparkle -->
  <path d="M256 164 Q276.24 235.76 348 256 Q276.24 276.24 256 348 Q235.76 276.24 164 256 Q235.76 235.76 256 164Z" fill="#ffe7ac"/>
  <circle cx="256" cy="256" r="16" fill="#fff"/>
</svg></svg>